<svg xmlns="http://www.w3.org/2000/svg" viewBox="0 0 168.45 154.7"><defs><style>.cls-1{fill:#fff;}</style></defs><title>LogoWHT</title><g id="Layer_2" data-name="Layer 2"><g id="Layer_1-2" data-name="Layer 1"><path class="cls-1" d="M52.05,61.52q0,12.15-.57,17.2A19.24,19.24,0,0,1,39.76,94.37a29.68,29.68,0,0,1-11.94,2.24A30.35,30.35,0,0,1,16.2,94.49a19.34,19.34,0,0,1-12-15.55,169.33,169.33,0,0,1-.6-17.42V47.74q0-12.15.58-17.2A19.24,19.24,0,0,1,15.88,14.89a29.61,29.61,0,0,1,11.94-2.24,30.38,30.38,0,0,1,11.62,2.12,19.39,19.39,0,0,1,12,15.55,173.21,173.21,0,0,1,.59,17.42ZM31.1,35.05c0-3.75-.2-6.15-.62-7.19a2.47,2.47,0,0,0-2.56-1.57,2.87,2.87,0,0,0-2.52,1.27q-.87,1.26-.87,7.49V72.67c0,4.68.19,7.56.58,8.66A2.5,2.5,0,0,0,27.77,83a2.59,2.59,0,0,0,2.74-1.89q.58-1.89.59-9Z"/><path class="cls-1" d="M108.79,49.43h-21v-14q0-6.12-.67-7.63c-.45-1-1.43-1.51-3-1.51-1.72,0-2.82.61-3.28,1.84s-.7,3.88-.7,8V73.52q0,5.87.7,7.66c.46,1.19,1.51,1.79,3.13,1.79a3,3,0,0,0,3.06-1.79q.72-1.8.72-8.44V62.62h21v3.14q0,12.51-1.77,17.74t-7.81,9.17Q93.15,96.6,84.3,96.61q-9.21,0-15.18-3.34A16.19,16.19,0,0,1,61.21,84q-1.93-5.9-1.94-17.74V42.76a104.15,104.15,0,0,1,.6-13.06,18.22,18.22,0,0,1,3.55-8.39A19.94,19.94,0,0,1,71.64,15,29.52,29.52,0,0,1,83.7,12.65Q93,12.65,99,16.23t7.91,8.92q1.89,5.34,1.9,16.63Z"/><path class="cls-1" d="M116.3,14.35H132q15.17,0,20.52,1.39a15.71,15.71,0,0,1,8.14,4.58,14.39,14.39,0,0,1,3.48,7.09q.7,3.9.7,15.35V71q0,10.84-1,14.5a11,11,0,0,1-3.56,5.73A14.76,14.76,0,0,1,154,94.09a56.54,56.54,0,0,1-11.25.82H116.3Zm21,13.78v53q4.53,0,5.57-1.82t1.05-9.88V38.13a42,42,0,0,0-.35-7,3.32,3.32,0,0,0-1.59-2.27A10.37,10.37,0,0,0,137.25,28.13Z"/><path class="cls-1" d="M8.73,107.85c0,3.1-1.89,4.75-4.19,4.75S.48,110.75.48,108s1.78-4.74,4.19-4.74S8.73,105.17,8.73,107.85Zm-7,.14c0,1.93,1,3.66,2.87,3.66s2.89-1.7,2.89-3.75c0-1.79-.93-3.67-2.87-3.67S1.73,106,1.73,108Z"/><path class="cls-1" d="M10.24,103.55a12.16,12.16,0,0,1,2.24-.19,3.69,3.69,0,0,1,2.61.74,2.27,2.27,0,0,1,.71,1.71,2.37,2.37,0,0,1-1.7,2.3v0A2.26,2.26,0,0,1,15.42,110a14.6,14.6,0,0,0,.7,2.48H14.91a13.1,13.1,0,0,1-.6-2.16c-.27-1.24-.75-1.71-1.81-1.75H11.41v3.91H10.24Zm1.17,4.11H12.6c1.24,0,2-.68,2-1.71s-.84-1.68-2.07-1.69a4.39,4.39,0,0,0-1.15.11Z"/><path class="cls-1" d="M24.35,112.05a8.6,8.6,0,0,1-2.77.49,4.65,4.65,0,0,1-3.37-1.19A4.62,4.62,0,0,1,17,108a4.52,4.52,0,0,1,4.89-4.65,5.52,5.52,0,0,1,2.24.41l-.28,1a4.71,4.71,0,0,0-2-.39,3.38,3.38,0,0,0-3.63,3.63,3.31,3.31,0,0,0,3.48,3.64,3.84,3.84,0,0,0,1.55-.24v-2.69H21.38v-.94h3Z"/><path class="cls-1" d="M27.59,109.61l-.93,2.84H25.45l3.07-9h1.4l3.08,9H31.76l-1-2.84Zm3-.91-.88-2.59c-.2-.59-.34-1.13-.47-1.65h0c-.13.54-.28,1.08-.45,1.63l-.89,2.61Z"/><path class="cls-1" d="M34.33,112.45v-9H35.6L38.49,108a26.21,26.21,0,0,1,1.62,2.93h0c-.11-1.2-.14-2.3-.14-3.71v-3.77h1.1v9H39.92l-2.86-4.58a28.7,28.7,0,0,1-1.69-3h0c.07,1.14.1,2.23.1,3.72v3.86Z"/><path class="cls-1" d="M44.3,103.43v9H43.14v-9Z"/><path class="cls-1" d="M46.18,111a4.11,4.11,0,0,0,2.08.59c1.2,0,1.89-.63,1.89-1.54s-.48-1.32-1.7-1.79c-1.47-.52-2.38-1.29-2.38-2.56s1.16-2.45,2.92-2.45a4.18,4.18,0,0,1,2,.44l-.32,1a3.61,3.61,0,0,0-1.71-.42c-1.23,0-1.7.73-1.7,1.35,0,.84.55,1.25,1.79,1.74,1.53.59,2.3,1.32,2.3,2.65s-1,2.59-3.16,2.59a4.69,4.69,0,0,1-2.3-.57Z"/><path class="cls-1" d="M57.61,108.22H54.1v3.25H58v1H52.94v-9h4.87v1H54.1v2.85h3.51Z"/><path class="cls-1" d="M59.53,103.55a16.12,16.12,0,0,1,2.47-.19,5.14,5.14,0,0,1,3.65,1.13,4.13,4.13,0,0,1,1.28,3.24,4.77,4.77,0,0,1-1.3,3.5,5.59,5.59,0,0,1-4,1.3,17.82,17.82,0,0,1-2.11-.11Zm1.16,8a7.87,7.87,0,0,0,1.18.06,3.46,3.46,0,0,0,3.84-3.82c0-2.13-1.19-3.48-3.66-3.48a6.39,6.39,0,0,0-1.36.12Z"/><path class="cls-1" d="M80.42,112.15a5.66,5.66,0,0,1-2.38.43A4.22,4.22,0,0,1,73.58,108a4.5,4.5,0,0,1,4.71-4.74,4.79,4.79,0,0,1,2.14.4l-.28.95a4.3,4.3,0,0,0-1.82-.37c-2.11,0-3.52,1.35-3.52,3.72a3.29,3.29,0,0,0,3.47,3.63,4.62,4.62,0,0,0,1.9-.38Z"/><path class="cls-1" d="M83.05,103.43v3.77h4.36v-3.77h1.18v9H87.41v-4.23H83.05v4.23H81.88v-9Z"/><path class="cls-1" d="M92.07,109.61l-.94,2.84h-1.2l3.06-9H94.4l3.08,9H96.23l-1-2.84Zm3-.91-.88-2.59a17,17,0,0,1-.47-1.65h0c-.13.54-.28,1.08-.45,1.63l-.89,2.61Z"/><path class="cls-1" d="M106.31,107.85c0,3.1-1.88,4.75-4.18,4.75s-4.06-1.85-4.06-4.58,1.78-4.74,4.19-4.74S106.31,105.17,106.31,107.85Zm-7,.14c0,1.93,1,3.66,2.88,3.66s2.89-1.7,2.89-3.75c0-1.79-.93-3.67-2.87-3.67S99.31,106,99.31,108Z"/><path class="cls-1" d="M107.67,111a4.12,4.12,0,0,0,2.09.59c1.19,0,1.88-.63,1.88-1.54s-.48-1.32-1.7-1.79c-1.47-.52-2.38-1.29-2.38-2.56s1.17-2.45,2.92-2.45a4.18,4.18,0,0,1,2,.44l-.32,1a3.57,3.57,0,0,0-1.71-.42c-1.23,0-1.7.73-1.7,1.35,0,.84.55,1.25,1.79,1.74,1.53.59,2.31,1.32,2.31,2.65s-1,2.59-3.16,2.59a4.66,4.66,0,0,1-2.3-.57Z"/><path class="cls-1" d="M120.11,103.55a16.23,16.23,0,0,1,2.47-.19,5.15,5.15,0,0,1,3.66,1.13,4.16,4.16,0,0,1,1.27,3.24,4.77,4.77,0,0,1-1.3,3.5,5.58,5.58,0,0,1-4,1.3,18,18,0,0,1-2.11-.11Zm1.16,8a8,8,0,0,0,1.18.06,3.46,3.46,0,0,0,3.84-3.82c0-2.13-1.19-3.48-3.65-3.48a6.42,6.42,0,0,0-1.37.12Z"/><path class="cls-1" d="M133.69,108.22h-3.5v3.25h3.91v1H129v-9h4.88v1h-3.71v2.85h3.5Z"/><path class="cls-1" d="M135.45,111a4.15,4.15,0,0,0,2.09.59c1.19,0,1.88-.63,1.88-1.54s-.48-1.32-1.69-1.79c-1.48-.52-2.39-1.29-2.39-2.56s1.17-2.45,2.92-2.45a4.18,4.18,0,0,1,2,.44l-.32,1a3.57,3.57,0,0,0-1.71-.42c-1.23,0-1.7.73-1.7,1.35,0,.84.55,1.25,1.79,1.74,1.53.59,2.31,1.32,2.31,2.65s-1,2.59-3.16,2.59a4.66,4.66,0,0,1-2.3-.57Z"/><path class="cls-1" d="M143.38,103.43v9h-1.17v-9Z"/><path class="cls-1" d="M152.28,112.05a8.72,8.72,0,0,1-2.77.49,4.22,4.22,0,0,1-4.63-4.55,4.52,4.52,0,0,1,4.88-4.65,5.58,5.58,0,0,1,2.25.41l-.28,1a4.76,4.76,0,0,0-2-.39,3.37,3.37,0,0,0-3.62,3.63,3.31,3.31,0,0,0,3.48,3.64,3.87,3.87,0,0,0,1.55-.24v-2.69h-1.83v-.94h3Z"/><path class="cls-1" d="M154.06,112.45v-9h1.27l2.89,4.56a26.21,26.21,0,0,1,1.62,2.93h0c-.11-1.2-.14-2.3-.14-3.71v-3.77h1.1v9h-1.18l-2.86-4.58a28.7,28.7,0,0,1-1.69-3h0c.07,1.14.1,2.23.1,3.72v3.86Z"/><path class="cls-1" d="M162.71,111a4.12,4.12,0,0,0,2.09.59c1.19,0,1.88-.63,1.88-1.54s-.48-1.32-1.7-1.79c-1.47-.52-2.38-1.29-2.38-2.56s1.17-2.45,2.92-2.45a4.18,4.18,0,0,1,2,.44l-.32,1a3.57,3.57,0,0,0-1.71-.42c-1.23,0-1.7.73-1.7,1.35,0,.84.55,1.25,1.79,1.74,1.53.59,2.3,1.32,2.3,2.65s-1,2.59-3.15,2.59a4.73,4.73,0,0,1-2.31-.57Z"/><path class="cls-1" d="M1.23,118.31H7.47a14.45,14.45,0,0,1,3.89.4,4.29,4.29,0,0,1,2,1.14,3.91,3.91,0,0,1,.93,1.82,16.42,16.42,0,0,1,.24,3.3V127a8.76,8.76,0,0,1-.47,3.33,3.21,3.21,0,0,1-1.73,1.6,8.2,8.2,0,0,1-3.28.56H7.42v9.58H1.23Zm6.19,4.07v6.06h.46A1.45,1.45,0,0,0,9.06,128a3.12,3.12,0,0,0,.33-1.75v-2A2.26,2.26,0,0,0,9,122.75,2.35,2.35,0,0,0,7.42,122.38Z"/><path class="cls-1" d="M16.35,118.31h4.38a32.94,32.94,0,0,1,5.93.34,4,4,0,0,1,2.53,1.73,7.83,7.83,0,0,1,1,4.43,6.91,6.91,0,0,1-.69,3.73,3.63,3.63,0,0,1-2.72,1.15,4.64,4.64,0,0,1,2.47,1.22,3.81,3.81,0,0,1,.79,1.4,22.84,22.84,0,0,1,.15,3.52v6.28H24.42V134.2a5.44,5.44,0,0,0-.3-2.36c-.2-.31-.73-.46-1.58-.46v10.73H16.35Zm6.19,4.07v5.29a2.73,2.73,0,0,0,1.46-.28q.42-.28.42-1.86v-1.31a2,2,0,0,0-.4-1.49A2.34,2.34,0,0,0,22.54,122.38Z"/><path class="cls-1" d="M46.71,132.25c0,2.39-.06,4.08-.17,5.08A5.71,5.71,0,0,1,43.08,142a8.79,8.79,0,0,1-3.53.66,9.08,9.08,0,0,1-3.43-.62,5.62,5.62,0,0,1-2.45-1.88,5.52,5.52,0,0,1-1.1-2.72,49.14,49.14,0,0,1-.18-5.14v-4.08c0-2.39.06-4.08.17-5.08a5.68,5.68,0,0,1,1.06-2.72,5.62,5.62,0,0,1,2.4-1.9,8.79,8.79,0,0,1,3.53-.66,9.08,9.08,0,0,1,3.43.62,5.69,5.69,0,0,1,2.45,1.88,5.52,5.52,0,0,1,1.1,2.72,49.14,49.14,0,0,1,.18,5.14Zm-6.19-7.82a7.57,7.57,0,0,0-.18-2.13.74.74,0,0,0-.76-.46.84.84,0,0,0-.74.37,5.35,5.35,0,0,0-.26,2.22v11.11a11.08,11.08,0,0,0,.17,2.56.73.73,0,0,0,.79.48.74.74,0,0,0,.8-.55,11.64,11.64,0,0,0,.18-2.67Z"/><path class="cls-1" d="M49,118.31h4.63a29.26,29.26,0,0,1,6.07.41,4.75,4.75,0,0,1,2.4,1.35,4.32,4.32,0,0,1,1,2.1,31,31,0,0,1,.21,4.53V135a19.27,19.27,0,0,1-.31,4.29A3.23,3.23,0,0,1,62,141a4.39,4.39,0,0,1-1.85.85,16.92,16.92,0,0,1-3.32.24H49Zm6.19,4.07V138q1.34,0,1.65-.54a7.92,7.92,0,0,0,.31-2.91v-9.25a12.11,12.11,0,0,0-.11-2.08,1,1,0,0,0-.47-.67A3.06,3.06,0,0,0,55.21,122.38Z"/><path class="cls-1" d="M79.73,118.31v15.91a27.53,27.53,0,0,1-.17,3.8,5.19,5.19,0,0,1-1,2.25A5.4,5.4,0,0,1,76.23,142a8.76,8.76,0,0,1-3.35.59,9.41,9.41,0,0,1-3.76-.7,5.69,5.69,0,0,1-2.44-1.84,5.13,5.13,0,0,1-1-2.39c-.1-.84-.14-2.6-.14-5.29V118.31h6.19v17.85a7.26,7.26,0,0,0,.16,2,.67.67,0,0,0,.69.43.72.72,0,0,0,.76-.47,9.22,9.22,0,0,0,.16-2.26V118.31Z"/><path class="cls-1" d="M96.58,128.67H90.39v-4.13a7.52,7.52,0,0,0-.19-2.25.87.87,0,0,0-.88-.45.92.92,0,0,0-1,.54,8.11,8.11,0,0,0-.21,2.35v11.06a7.63,7.63,0,0,0,.21,2.27.89.89,0,0,0,.93.52.86.86,0,0,0,.9-.53,8.74,8.74,0,0,0,.21-2.49v-3h6.19v.93a18.24,18.24,0,0,1-.52,5.24,5.4,5.4,0,0,1-2.31,2.71,7.86,7.86,0,0,1-4.4,1.16,9.17,9.17,0,0,1-4.48-1,4.79,4.79,0,0,1-2.34-2.73,17.93,17.93,0,0,1-.58-5.24v-7a30.41,30.41,0,0,1,.18-3.86,5.45,5.45,0,0,1,1.05-2.47,5.88,5.88,0,0,1,2.43-1.88,8.83,8.83,0,0,1,3.56-.68,8.69,8.69,0,0,1,4.52,1.06A5.12,5.12,0,0,1,96,121.5a16,16,0,0,1,.55,4.91Z"/><path class="cls-1" d="M111.27,118.31v4.76H107.6v19h-6.19v-19H97.75v-4.76Z"/><path class="cls-1" d="M118.87,118.31v23.8h-6.19v-23.8Z"/><path class="cls-1" d="M135.5,132.25a49.62,49.62,0,0,1-.17,5.08,5.66,5.66,0,0,1-3.46,4.62,8.75,8.75,0,0,1-3.53.66,9.08,9.08,0,0,1-3.43-.62,5.68,5.68,0,0,1-2.45-1.88,5.62,5.62,0,0,1-1.1-2.72,49.14,49.14,0,0,1-.18-5.14v-4.08c0-2.39.06-4.08.17-5.08a5.68,5.68,0,0,1,1.06-2.72,5.62,5.62,0,0,1,2.4-1.9,8.79,8.79,0,0,1,3.53-.66,9.13,9.13,0,0,1,3.44.62,5.78,5.78,0,0,1,3.55,4.6c.11,1,.17,2.69.17,5.14Zm-6.19-7.82a7.57,7.57,0,0,0-.18-2.13.73.73,0,0,0-.76-.46.84.84,0,0,0-.74.37,5.35,5.35,0,0,0-.26,2.22v11.11a11.08,11.08,0,0,0,.17,2.56.74.74,0,0,0,.79.48.76.76,0,0,0,.81-.55,12.54,12.54,0,0,0,.17-2.67Z"/><path class="cls-1" d="M151.63,118.31v23.8h-5.42L143,131.29v10.82h-5.18v-23.8H143L146.46,129V118.31Z"/><path class="cls-1" d="M167.23,125.51h-5.75v-1.76a3.4,3.4,0,0,0-.22-1.57.79.79,0,0,0-.73-.34.94.94,0,0,0-.85.45,2.7,2.7,0,0,0-.28,1.39,3.84,3.84,0,0,0,.32,1.79,4.68,4.68,0,0,0,1.75,1.46c2.75,1.63,4.49,3,5.2,4a9.2,9.2,0,0,1,1.08,5.08,8.88,8.88,0,0,1-.6,3.75,4.71,4.71,0,0,1-2.3,2,9.17,9.17,0,0,1-4,.81,8.82,8.82,0,0,1-4.24-.94,4.61,4.61,0,0,1-2.3-2.39,12.11,12.11,0,0,1-.55-4.14v-1.55h5.75v2.89a3.66,3.66,0,0,0,.25,1.72.92.92,0,0,0,.86.38,1,1,0,0,0,.91-.48,2.75,2.75,0,0,0,.31-1.44,4.47,4.47,0,0,0-.58-2.75,18.59,18.59,0,0,0-2.89-2.16,28.66,28.66,0,0,1-3.06-2.22,5.24,5.24,0,0,1-1.25-1.91,11,11,0,0,1,.21-7.12,4.77,4.77,0,0,1,2.26-2,9.07,9.07,0,0,1,3.76-.71,9.79,9.79,0,0,1,4.11.78,4.32,4.32,0,0,1,2.25,2,10.35,10.35,0,0,1,.55,4Z"/><rect class="cls-1" y="146.11" width="168.45" height="8.59"/><rect class="cls-1" width="168.45" height="8.59"/><circle class="cls-1" cx="70.47" cy="107.66" r="1.04"/><circle class="cls-1" cx="116.3" cy="107.66" r="1.04"/></g></g></svg>